<?xml version="1.0" encoding="UTF-8"?>
<svg width="32" height="32" viewBox="0 0 32 32" fill="none" xmlns="http://www.w3.org/2000/svg">
  <defs>
    <linearGradient id="gradient" x1="0%" y1="0%" x2="100%" y2="100%">
      <stop offset="0%" style="stop-color:#F97316"/>
      <stop offset="50%" style="stop-color:#F59E0B"/>
      <stop offset="100%" style="stop-color:#EF4444"/>
    </linearGradient>
  </defs>
  <path d="M16 4C9.37258 4 4 9.37258 4 16C4 22.6274 9.37258 28 16 28C22.6274 28 28 22.6274 28 16C28 9.37258 22.6274 4 16 4ZM16 8C17.6569 8 19 9.34315 19 11C19 12.6569 17.6569 14 16 14C14.3431 14 13 12.6569 13 11C13 9.34315 14.3431 8 16 8ZM12 20C10.3431 20 9 18.6569 9 17C9 15.3431 10.3431 14 12 14C13.6569 14 15 15.3431 15 17C15 18.6569 13.6569 20 12 20ZM20 20C18.3431 20 17 18.6569 17 17C17 15.3431 18.3431 14 20 14C21.6569 14 23 15.3431 23 17C23 18.6569 21.6569 20 20 20Z" fill="url(#gradient)"/>
</svg>
